<svg version="1.1" id="Layer_1" xmlns="http://www.w3.org/2000/svg" xmlns:xlink="http://www.w3.org/1999/xlink" x="0px" y="0px"
	 width="100%" viewBox="0 0 200 200" enable-background="new 0 0 200 200" xml:space="preserve">
<path fill="#FEFEFE" opacity="1.000000" stroke="none" 
	d="
M120.000000,201.000000 
	C80.024696,201.000000 40.549400,201.000000 1.037050,201.000000 
	C1.037050,134.399734 1.037050,67.799454 1.037050,1.099581 
	C67.558464,1.099581 134.117126,1.099581 200.837891,1.099581 
	C200.837891,67.666351 200.837891,134.333145 200.837891,201.000000 
	C174.133072,201.000000 147.316528,201.000000 120.000000,201.000000 
M124.138809,42.219616 
	C98.984047,42.220100 73.829247,42.196987 48.674545,42.234299 
	C40.260571,42.246780 35.175632,46.572765 35.132870,54.196236 
	C35.002045,77.517792 35.007679,100.840958 35.130997,124.162590 
	C35.168861,131.323700 40.013187,135.861359 47.187733,136.010223 
	C51.131413,136.092041 55.078186,136.024872 59.219738,136.024872 
	C59.219738,142.894974 59.084869,149.212555 59.305489,155.517685 
	C59.368141,157.308182 60.466415,159.062424 61.089752,160.833298 
	C62.768852,160.039825 64.828247,159.626053 66.063164,158.389114 
	C72.415977,152.026001 78.421928,145.312546 84.864990,139.046341 
	C86.521500,137.435318 89.313332,136.178787 91.598595,136.154221 
	C112.086533,135.934036 132.577850,136.045792 153.068115,136.016312 
	C161.901443,136.003601 166.148697,131.722702 166.176407,122.800392 
	C166.218307,109.306908 166.202911,95.813156 166.172989,82.319611 
	C166.167648,79.909019 166.808594,76.773247 162.938049,76.890488 
	C159.526550,76.993828 159.976868,79.838882 159.975296,82.145370 
	C159.966187,95.638985 159.989578,109.132637 159.962128,122.626198 
	C159.950241,128.470001 158.460556,129.955688 152.591522,129.962463 
	C132.601013,129.985519 112.606361,130.197479 92.622536,129.831863 
	C86.936714,129.727829 82.954224,131.296341 79.244781,135.542068 
	C75.223053,140.145248 70.434761,144.078690 65.703926,148.566818 
	C65.703926,143.861816 65.551888,139.530396 65.748405,135.214874 
	C65.930298,131.220535 64.529572,129.296585 60.292671,129.562180 
	C56.642090,129.791031 52.965599,129.633240 49.300896,129.604172 
	C43.010105,129.554291 41.774372,128.321564 41.769466,121.951958 
	C41.752663,100.128967 41.754223,78.305946 41.768890,56.482956 
	C41.773556,49.542252 42.604046,48.713589 49.551556,48.710068 
	C74.706306,48.697315 99.861671,48.776276 125.014664,48.565079 
	C126.955338,48.548786 130.428101,46.655354 130.514160,45.444340 
	C130.751129,42.109627 127.610397,42.151577 124.138809,42.219616 
M161.264053,62.749237 
	C162.087128,61.926380 162.826447,60.992077 163.747650,60.299820 
	C167.883072,57.192188 167.559158,54.333920 163.702606,51.139412 
	C161.026733,48.922905 158.576462,46.375629 156.321274,43.724445 
	C153.495560,40.402573 151.234177,40.495811 148.190338,43.649315 
	C139.647186,52.500271 131.252441,61.564331 122.032631,69.672760 
	C112.711182,77.870583 106.793236,87.826317 103.171783,99.398201 
	C102.692398,100.930023 102.495964,103.492020 103.348251,104.249512 
	C104.312477,105.106483 106.764023,104.925621 108.299309,104.403503 
	C120.180161,100.363098 130.974503,94.833328 139.364349,84.862068 
	C145.869370,77.130905 153.584290,70.417763 161.264053,62.749237 
M51.458031,61.277790 
	C50.771049,62.624588 50.084068,63.971382 49.397083,65.318176 
	C51.078152,66.082397 52.753487,67.496117 54.441170,67.511009 
	C72.600052,67.671349 90.760887,67.615372 108.921188,67.606407 
	C111.433350,67.605164 114.515282,67.849754 114.430870,64.275024 
	C114.348106,60.769669 111.306229,61.085697 108.778023,61.088589 
	C89.951492,61.110107 71.124939,61.117031 51.458031,61.277790 
M80.482635,86.423073 
	C83.979607,86.424164 87.515770,86.734215 90.957222,86.297661 
	C92.711464,86.075142 94.295609,84.511711 95.956635,83.554390 
	C94.302155,82.400719 92.670334,80.286743 90.989578,80.247101 
	C78.840210,79.960518 66.678040,79.963715 54.528011,80.235809 
	C52.745201,80.275734 51.005150,82.225151 49.245316,83.291054 
	C51.000366,84.335030 52.723206,86.211311 54.515980,86.280708 
	C62.829639,86.602478 71.162704,86.423012 80.482635,86.423073 
M93.870148,105.066101 
	C94.491913,103.735504 95.113678,102.404915 95.735451,101.074318 
	C94.176666,100.395935 92.625496,99.150246 91.057899,99.129227 
	C78.901306,98.966270 66.738754,98.912338 54.585815,99.179108 
	C52.791187,99.218498 49.675949,100.961029 49.530403,102.194016 
	C49.154404,105.379311 52.125061,105.284981 54.507530,105.280258 
	C67.332108,105.254845 80.156700,105.241524 93.870148,105.066101 
z"/>
<path fill="#0E0E0E" opacity="1.000000" stroke="none" 
	d="
M124.589355,42.219631 
	C127.610397,42.151577 130.751129,42.109627 130.514160,45.444340 
	C130.428101,46.655354 126.955338,48.548786 125.014664,48.565079 
	C99.861671,48.776276 74.706306,48.697315 49.551556,48.710068 
	C42.604046,48.713589 41.773556,49.542252 41.768890,56.482956 
	C41.754223,78.305946 41.752663,100.128967 41.769466,121.951958 
	C41.774372,128.321564 43.010105,129.554291 49.300896,129.604172 
	C52.965599,129.633240 56.642090,129.791031 60.292671,129.562180 
	C64.529572,129.296585 65.930298,131.220535 65.748405,135.214874 
	C65.551888,139.530396 65.703926,143.861816 65.703926,148.566818 
	C70.434761,144.078690 75.223053,140.145248 79.244781,135.542068 
	C82.954224,131.296341 86.936714,129.727829 92.622536,129.831863 
	C112.606361,130.197479 132.601013,129.985519 152.591522,129.962463 
	C158.460556,129.955688 159.950241,128.470001 159.962128,122.626198 
	C159.989578,109.132637 159.966187,95.638985 159.975296,82.145370 
	C159.976868,79.838882 159.526550,76.993828 162.938049,76.890488 
	C166.808594,76.773247 166.167648,79.909019 166.172989,82.319611 
	C166.202911,95.813156 166.218307,109.306908 166.176407,122.800392 
	C166.148697,131.722702 161.901443,136.003601 153.068115,136.016312 
	C132.577850,136.045792 112.086533,135.934036 91.598595,136.154221 
	C89.313332,136.178787 86.521500,137.435318 84.864990,139.046341 
	C78.421928,145.312546 72.415977,152.026001 66.063164,158.389114 
	C64.828247,159.626053 62.768852,160.039825 61.089752,160.833298 
	C60.466415,159.062424 59.368141,157.308182 59.305489,155.517685 
	C59.084869,149.212555 59.219738,142.894974 59.219738,136.024872 
	C55.078186,136.024872 51.131413,136.092041 47.187733,136.010223 
	C40.013187,135.861359 35.168861,131.323700 35.130997,124.162590 
	C35.007679,100.840958 35.002045,77.517792 35.132870,54.196236 
	C35.175632,46.572765 40.260571,42.246780 48.674545,42.234299 
	C73.829247,42.196987 98.984047,42.220100 124.589355,42.219631 
z"/>
<path fill="#0A0A0A" opacity="1.000000" stroke="none" 
	d="
M161.012726,63.000664 
	C153.584290,70.417763 145.869370,77.130905 139.364349,84.862068 
	C130.974503,94.833328 120.180161,100.363098 108.299309,104.403503 
	C106.764023,104.925621 104.312477,105.106483 103.348251,104.249512 
	C102.495964,103.492020 102.692398,100.930023 103.171783,99.398201 
	C106.793236,87.826317 112.711182,77.870583 122.032631,69.672760 
	C131.252441,61.564331 139.647186,52.500271 148.190338,43.649315 
	C151.234177,40.495811 153.495560,40.402573 156.321274,43.724445 
	C158.576462,46.375629 161.026733,48.922905 163.702606,51.139412 
	C167.559158,54.333920 167.883072,57.192188 163.747650,60.299820 
	C162.826447,60.992077 162.087128,61.926380 161.012726,63.000664 
M117.294449,93.838043 
	C121.351784,91.066536 125.685982,88.618431 129.396606,85.441910 
	C134.066696,81.444016 138.244232,76.867844 142.602890,72.509804 
	C148.099396,67.014107 153.564178,61.486717 159.020630,55.995163 
	C156.471512,53.598244 154.206360,51.468346 152.083862,49.472584 
	C141.432556,59.943748 130.424500,70.345940 119.965302,81.273476 
	C116.259224,85.145493 113.890350,90.297409 110.911011,94.865028 
	C111.314568,95.200829 111.718124,95.536629 112.121681,95.872421 
	C113.603455,95.270370 115.085228,94.668312 117.294449,93.838043 
z"/>
<path fill="#1B1B1B" opacity="1.000000" stroke="none" 
	d="
M51.878212,61.203163 
	C71.124939,61.117031 89.951492,61.110107 108.778023,61.088589 
	C111.306229,61.085697 114.348106,60.769669 114.430870,64.275024 
	C114.515282,67.849754 111.433350,67.605164 108.921188,67.606407 
	C90.760887,67.615372 72.600052,67.671349 54.441170,67.511009 
	C52.753487,67.496117 51.078152,66.082397 49.397087,65.318176 
	C50.084068,63.971382 50.771049,62.624588 51.878212,61.203163 
z"/>
<path fill="#090909" opacity="1.000000" stroke="none" 
	d="
M79.985725,86.423050 
	C71.162704,86.423012 62.829639,86.602478 54.515980,86.280708 
	C52.723206,86.211311 51.000366,84.335030 49.245316,83.291054 
	C51.005150,82.225151 52.745201,80.275734 54.528011,80.235809 
	C66.678040,79.963715 78.840210,79.960518 90.989578,80.247101 
	C92.670334,80.286743 94.302155,82.400719 95.956635,83.554390 
	C94.295609,84.511711 92.711464,86.075142 90.957222,86.297661 
	C87.515770,86.734215 83.979607,86.424164 79.985725,86.423050 
z"/>
<path fill="#050505" opacity="1.000000" stroke="none" 
	d="
M93.425720,105.145065 
	C80.156700,105.241524 67.332108,105.254845 54.507530,105.280258 
	C52.125061,105.284981 49.154404,105.379311 49.530403,102.194016 
	C49.675949,100.961029 52.791187,99.218498 54.585815,99.179108 
	C66.738754,98.912338 78.901306,98.966270 91.057899,99.129227 
	C92.625496,99.150246 94.176666,100.395935 95.735451,101.074318 
	C95.113678,102.404915 94.491913,103.735504 93.425720,105.145065 
z"/>
<path fill="#F3F3F3" opacity="1.000000" stroke="none" 
	d="
M116.930725,93.952148 
	C115.085228,94.668312 113.603455,95.270370 112.121681,95.872421 
	C111.718124,95.536629 111.314568,95.200829 110.911011,94.865028 
	C113.890350,90.297409 116.259224,85.145493 119.965302,81.273476 
	C130.424500,70.345940 141.432556,59.943748 152.083862,49.472584 
	C154.206360,51.468346 156.471512,53.598244 159.020630,55.995163 
	C153.564178,61.486717 148.099396,67.014107 142.602890,72.509804 
	C138.244232,76.867844 134.066696,81.444016 129.396606,85.441910 
	C125.685982,88.618431 121.351784,91.066536 116.930725,93.952148 
z"/>
</svg>